<svg xmlns="http://www.w3.org/2000/svg" version="1.0" width="500.000000pt" height="500.000000pt" viewBox="0 0 500.000000 500.000000" preserveAspectRatio="xMidYMid meet">

<g transform="translate(0.000000,500.000000) scale(0.100000,-0.100000)" fill="#115e59" stroke="none">
<path d="M3106 4637 c-17 -12 -12 -15 48 -25 87 -14 159 -48 221 -104 157 -143 216 -396 235 -1003 6 -192 14 -314 25 -360 33 -152 131 -296 236 -348 l48 -24 -42 -19 c-65 -29 -150 -121 -190 -206 -58 -121 -68 -188 -77 -518 -13 -445 -50 -684 -127 -840 -44 -86 -73 -108 -155 -117 -141 -14 -253 73 -353 275 -111 224 -203 618 -260 1112 -27 237 -75 549 -116 755 -162 821 -391 1251 -716 1350 -96 29 -204 15 -365 -49 -184 -73 -272 -170 -339 -375 -54 -170 -70 -306 -79 -696 -6 -259 -12 -363 -23 -401 -35 -123 -116 -229 -208 -271 -21 -10 -39 -21 -39 -24 0 -3 27 -23 59 -43 70 -43 111 -88 148 -159 51 -101 54 -129 63 -502 8 -356 18 -463 59 -626 70 -280 235 -449 437 -449 29 0 65 5 81 11 27 11 26 12 -36 25 -149 32 -247 106 -311 237 -77 156 -106 344 -120 762 -11 305 -20 388 -56 483 -41 109 -120 201 -205 239 l-38 16 39 19 c90 45 172 143 209 250 30 88 40 183 51 478 19 559 78 781 241 910 159 125 355 68 515 -150 210 -286 366 -842 489 -1745 14 -104 35 -252 45 -327 69 -499 175 -844 326 -1054 61 -87 125 -140 229 -191 85 -42 93 -44 155 -40 251 20 419 236 479 619 27 166 34 276 36 563 3 331 7 368 59 480 32 69 105 147 171 181 30 16 55 32 55 36 0 4 -19 17 -42 29 -63 32 -147 117 -179 181 -55 109 -62 163 -64 498 -5 692 -106 1005 -365 1133 -54 27 -78 33 -150 35 -61 3 -90 0 -104 -11z m-1251 -142 c100 -17 231 -121 320 -254 210 -317 356 -872 470 -1786 70 -563 146 -884 265 -1130 104 -217 227 -324 369 -325 45 -1 45 -1 21 -15 -36 -20 -117 -18 -191 5 -122 38 -224 142 -309 315 -120 244 -178 488 -260 1095 -79 575 -124 827 -205 1138 -130 497 -315 841 -503 936 -52 26 -68 42 -34 33 9 -3 35 -8 57 -12z" fill="#115e59"/>
</g>
</svg>